{
	"asset":{
		"generator":"Khronos glTF Blender I/O v3.5.30",
		"version":"2.0"
	},
	"scene":0,
	"scenes":[
		{
			"name":"Scene",
			"nodes":[
				0
			]
		}
	],
	"nodes":[
		{
			"mesh":0,
			"name":"ClassMockup_Room_02"
		}
	],
	"meshes":[
		{
			"name":"Cube.003",
			"primitives":[
				{
					"attributes":{
						"POSITION":0,
						"TEXCOORD_0":1,
						"NORMAL":2
					},
					"indices":3
				}
			]
		}
	],
	"accessors":[
		{
			"bufferView":0,
			"componentType":5126,
			"count":230,
			"max":[
				3.5,
				3,
				1.5359485149383545
			],
			"min":[
				-3.5,
				-1.1920928955078125e-07,
				-5.464051246643066
			],
			"type":"VEC3"
		},
		{
			"bufferView":1,
			"componentType":5126,
			"count":230,
			"type":"VEC2"
		},
		{
			"bufferView":2,
			"componentType":5126,
			"count":230,
			"type":"VEC3"
		},
		{
			"bufferView":3,
			"componentType":5123,
			"count":648,
			"type":"SCALAR"
		}
	],
	"bufferViews":[
		{
			"buffer":0,
			"byteLength":2760,
			"byteOffset":0,
			"target":34962
		},
		{
			"buffer":0,
			"byteLength":1840,
			"byteOffset":2760,
			"target":34962
		},
		{
			"buffer":0,
			"byteLength":2760,
			"byteOffset":4600,
			"target":34962
		},
		{
			"buffer":0,
			"byteLength":1296,
			"byteOffset":7360,
			"target":34963
		}
	],
	"buffers":[
		{
			"byteLength":8656,
			"uri":"data:application/octet-stream;base64,"
		}
	]
}
