{
	"asset":{
		"generator":"Khronos glTF Blender I/O v3.5.30",
		"version":"2.0"
	},
	"scene":0,
	"scenes":[
		{
			"name":"Scene",
			"nodes":[
				12
			]
		}
	],
	"nodes":[
		{
			"name":"DEF-Pot",
			"rotation":[
				0.7071067690849304,
				0,
				0,
				0.7071067690849304
			]
		},
		{
			"name":"DEF-Body_01",
			"rotation":[
				0.7071067690849304,
				0,
				0,
				0.7071067690849304
			]
		},
		{
			"children":[
				1
			],
			"name":"CTRL-BodyTwist",
			"translation":[
				0,
				0,
				0.5971023440361023
			]
		},
		{
			"children":[
				2
			],
			"name":"INT-Body",
			"translation":[
				0,
				0,
				0.3127714991569519
			]
		},
		{
			"children":[
				0,
				3
			],
			"name":"CTRL-POT"
		},
		{
			"name":"DEF-Body_00",
			"rotation":[
				0.7071067690849304,
				0,
				0,
				0.7071067690849304
			],
			"translation":[
				0,
				-2.9802322387695312e-08,
				0
			]
		},
		{
			"children":[
				5
			],
			"name":"CTRL-ROT-Body",
			"translation":[
				0,
				0,
				0.3127714991569519
			]
		},
		{
			"children":[
				4,
				6
			],
			"name":"ROOT",
			"rotation":[
				-0.7071067690849304,
				0,
				0,
				0.7071067690849304
			]
		},
		{
			"mesh":0,
			"name":"N_Body",
			"skin":0
		},
		{
			"mesh":1,
			"name":"N_Eye",
			"skin":0
		},
		{
			"mesh":2,
			"name":"N_Eye.001",
			"skin":0
		},
		{
			"mesh":3,
			"name":"N_Pot",
			"skin":0
		},
		{
			"children":[
				8,
				9,
				10,
				11,
				7
			],
			"name":"Armature"
		}
	],
	"animations":[
		{
			"channels":[
				{
					"sampler":0,
					"target":{
						"node":7,
						"path":"translation"
					}
				},
				{
					"sampler":1,
					"target":{
						"node":7,
						"path":"rotation"
					}
				},
				{
					"sampler":2,
					"target":{
						"node":7,
						"path":"scale"
					}
				},
				{
					"sampler":3,
					"target":{
						"node":4,
						"path":"translation"
					}
				},
				{
					"sampler":4,
					"target":{
						"node":4,
						"path":"rotation"
					}
				},
				{
					"sampler":5,
					"target":{
						"node":4,
						"path":"scale"
					}
				},
				{
					"sampler":6,
					"target":{
						"node":0,
						"path":"translation"
					}
				},
				{
					"sampler":7,
					"target":{
						"node":0,
						"path":"rotation"
					}
				},
				{
					"sampler":8,
					"target":{
						"node":0,
						"path":"scale"
					}
				},
				{
					"sampler":9,
					"target":{
						"node":3,
						"path":"translation"
					}
				},
				{
					"sampler":10,
					"target":{
						"node":3,
						"path":"rotation"
					}
				},
				{
					"sampler":11,
					"target":{
						"node":3,
						"path":"scale"
					}
				},
				{
					"sampler":12,
					"target":{
						"node":2,
						"path":"translation"
					}
				},
				{
					"sampler":13,
					"target":{
						"node":2,
						"path":"rotation"
					}
				},
				{
					"sampler":14,
					"target":{
						"node":2,
						"path":"scale"
					}
				},
				{
					"sampler":15,
					"target":{
						"node":1,
						"path":"translation"
					}
				},
				{
					"sampler":16,
					"target":{
						"node":1,
						"path":"rotation"
					}
				},
				{
					"sampler":17,
					"target":{
						"node":1,
						"path":"scale"
					}
				},
				{
					"sampler":18,
					"target":{
						"node":6,
						"path":"translation"
					}
				},
				{
					"sampler":19,
					"target":{
						"node":6,
						"path":"rotation"
					}
				},
				{
					"sampler":20,
					"target":{
						"node":6,
						"path":"scale"
					}
				},
				{
					"sampler":21,
					"target":{
						"node":5,
						"path":"translation"
					}
				},
				{
					"sampler":22,
					"target":{
						"node":5,
						"path":"rotation"
					}
				},
				{
					"sampler":23,
					"target":{
						"node":5,
						"path":"scale"
					}
				}
			],
			"name":"Noma_Idle",
			"samplers":[
				{
					"input":25,
					"interpolation":"LINEAR",
					"output":26
				},
				{
					"input":25,
					"interpolation":"LINEAR",
					"output":27
				},
				{
					"input":25,
					"interpolation":"LINEAR",
					"output":28
				},
				{
					"input":25,
					"interpolation":"LINEAR",
					"output":29
				},
				{
					"input":25,
					"interpolation":"LINEAR",
					"output":30
				},
				{
					"input":25,
					"interpolation":"LINEAR",
					"output":31
				},
				{
					"input":25,
					"interpolation":"LINEAR",
					"output":32
				},
				{
					"input":25,
					"interpolation":"LINEAR",
					"output":33
				},
				{
					"input":25,
					"interpolation":"LINEAR",
					"output":34
				},
				{
					"input":25,
					"interpolation":"LINEAR",
					"output":35
				},
				{
					"input":25,
					"interpolation":"LINEAR",
					"output":36
				},
				{
					"input":25,
					"interpolation":"LINEAR",
					"output":37
				},
				{
					"input":25,
					"interpolation":"LINEAR",
					"output":38
				},
				{
					"input":25,
					"interpolation":"LINEAR",
					"output":39
				},
				{
					"input":25,
					"interpolation":"LINEAR",
					"output":40
				},
				{
					"input":25,
					"interpolation":"LINEAR",
					"output":41
				},
				{
					"input":25,
					"interpolation":"LINEAR",
					"output":42
				},
				{
					"input":25,
					"interpolation":"LINEAR",
					"output":43
				},
				{
					"input":25,
					"interpolation":"LINEAR",
					"output":44
				},
				{
					"input":25,
					"interpolation":"LINEAR",
					"output":45
				},
				{
					"input":25,
					"interpolation":"LINEAR",
					"output":46
				},
				{
					"input":25,
					"interpolation":"LINEAR",
					"output":47
				},
				{
					"input":25,
					"interpolation":"LINEAR",
					"output":48
				},
				{
					"input":25,
					"interpolation":"LINEAR",
					"output":49
				}
			]
		}
	],
	"meshes":[
		{
			"name":"Sphere",
			"primitives":[
				{
					"attributes":{
						"POSITION":0,
						"TEXCOORD_0":1,
						"NORMAL":2,
						"JOINTS_0":3,
						"WEIGHTS_0":4
					},
					"indices":5
				}
			]
		},
		{
			"name":"Circle.001",
			"primitives":[
				{
					"attributes":{
						"POSITION":7,
						"TEXCOORD_0":8,
						"NORMAL":9,
						"JOINTS_0":10,
						"WEIGHTS_0":11
					},
					"indices":12
				}
			]
		},
		{
			"name":"Circle.002",
			"primitives":[
				{
					"attributes":{
						"POSITION":13,
						"TEXCOORD_0":14,
						"NORMAL":15,
						"JOINTS_0":16,
						"WEIGHTS_0":17
					},
					"indices":18
				}
			]
		},
		{
			"name":"Circle",
			"primitives":[
				{
					"attributes":{
						"POSITION":19,
						"TEXCOORD_0":20,
						"NORMAL":21,
						"JOINTS_0":22,
						"WEIGHTS_0":23
					},
					"indices":24
				}
			]
		}
	],
	"skins":[
		{
			"inverseBindMatrices":6,
			"joints":[
				7,
				4,
				0,
				3,
				2,
				1,
				6,
				5
			],
			"name":"Armature"
		}
	],
	"accessors":[
		{
			"bufferView":0,
			"componentType":5126,
			"count":264,
			"max":[
				0.4045584797859192,
				1.5682146549224854,
				0.4045584499835968
			],
			"min":[
				-0.4045584797859192,
				0.2848900556564331,
				-0.4045584499835968
			],
			"type":"VEC3"
		},
		{
			"bufferView":1,
			"componentType":5126,
			"count":264,
			"type":"VEC2"
		},
		{
			"bufferView":2,
			"componentType":5126,
			"count":264,
			"type":"VEC3"
		},
		{
			"bufferView":3,
			"componentType":5121,
			"count":264,
			"type":"VEC4"
		},
		{
			"bufferView":4,
			"componentType":5126,
			"count":264,
			"type":"VEC4"
		},
		{
			"bufferView":5,
			"componentType":5123,
			"count":384,
			"type":"SCALAR"
		},
		{
			"bufferView":6,
			"componentType":5126,
			"count":8,
			"type":"MAT4"
		},
		{
			"bufferView":7,
			"componentType":5126,
			"count":54,
			"max":[
				0.22870294749736786,
				1.1736341714859009,
				0.37644970417022705
			],
			"min":[
				-0.22870297729969025,
				0.700082004070282,
				0.2853301167488098
			],
			"type":"VEC3"
		},
		{
			"bufferView":8,
			"componentType":5126,
			"count":54,
			"type":"VEC2"
		},
		{
			"bufferView":9,
			"componentType":5126,
			"count":54,
			"type":"VEC3"
		},
		{
			"bufferView":10,
			"componentType":5121,
			"count":54,
			"type":"VEC4"
		},
		{
			"bufferView":11,
			"componentType":5126,
			"count":54,
			"type":"VEC4"
		},
		{
			"bufferView":12,
			"componentType":5123,
			"count":120,
			"type":"SCALAR"
		},
		{
			"bufferView":13,
			"componentType":5126,
			"count":32,
			"max":[
				0.11435144394636154,
				1.0431360006332397,
				0.39739668369293213
			],
			"min":[
				-0.11435148119926453,
				0.814433217048645,
				0.35344672203063965
			],
			"type":"VEC3"
		},
		{
			"bufferView":14,
			"componentType":5126,
			"count":32,
			"type":"VEC2"
		},
		{
			"bufferView":15,
			"componentType":5126,
			"count":32,
			"type":"VEC3"
		},
		{
			"bufferView":16,
			"componentType":5121,
			"count":32,
			"type":"VEC4"
		},
		{
			"bufferView":17,
			"componentType":5126,
			"count":32,
			"type":"VEC4"
		},
		{
			"bufferView":18,
			"componentType":5123,
			"count":48,
			"type":"SCALAR"
		},
		{
			"bufferView":19,
			"componentType":5126,
			"count":162,
			"max":[
				0.6936103105545044,
				0.7889074087142944,
				0.6936103105545044
			],
			"min":[
				-0.6936103105545044,
				0,
				-0.6936103105545044
			],
			"type":"VEC3"
		},
		{
			"bufferView":20,
			"componentType":5126,
			"count":162,
			"type":"VEC2"
		},
		{
			"bufferView":21,
			"componentType":5126,
			"count":162,
			"type":"VEC3"
		},
		{
			"bufferView":22,
			"componentType":5121,
			"count":162,
			"type":"VEC4"
		},
		{
			"bufferView":23,
			"componentType":5126,
			"count":162,
			"type":"VEC4"
		},
		{
			"bufferView":24,
			"componentType":5123,
			"count":288,
			"type":"SCALAR"
		},
		{
			"bufferView":25,
			"componentType":5126,
			"count":100,
			"max":[
				4.166666666666667
			],
			"min":[
				0.041666666666666664
			],
			"type":"SCALAR"
		},
		{
			"bufferView":26,
			"componentType":5126,
			"count":100,
			"type":"VEC3"
		},
		{
			"bufferView":27,
			"componentType":5126,
			"count":100,
			"type":"VEC4"
		},
		{
			"bufferView":28,
			"componentType":5126,
			"count":100,
			"type":"VEC3"
		},
		{
			"bufferView":29,
			"componentType":5126,
			"count":100,
			"type":"VEC3"
		},
		{
			"bufferView":30,
			"componentType":5126,
			"count":100,
			"type":"VEC4"
		},
		{
			"bufferView":31,
			"componentType":5126,
			"count":100,
			"type":"VEC3"
		},
		{
			"bufferView":32,
			"componentType":5126,
			"count":100,
			"type":"VEC3"
		},
		{
			"bufferView":33,
			"componentType":5126,
			"count":100,
			"type":"VEC4"
		},
		{
			"bufferView":34,
			"componentType":5126,
			"count":100,
			"type":"VEC3"
		},
		{
			"bufferView":35,
			"componentType":5126,
			"count":100,
			"type":"VEC3"
		},
		{
			"bufferView":36,
			"componentType":5126,
			"count":100,
			"type":"VEC4"
		},
		{
			"bufferView":37,
			"componentType":5126,
			"count":100,
			"type":"VEC3"
		},
		{
			"bufferView":38,
			"componentType":5126,
			"count":100,
			"type":"VEC3"
		},
		{
			"bufferView":39,
			"componentType":5126,
			"count":100,
			"type":"VEC4"
		},
		{
			"bufferView":40,
			"componentType":5126,
			"count":100,
			"type":"VEC3"
		},
		{
			"bufferView":41,
			"componentType":5126,
			"count":100,
			"type":"VEC3"
		},
		{
			"bufferView":42,
			"componentType":5126,
			"count":100,
			"type":"VEC4"
		},
		{
			"bufferView":43,
			"componentType":5126,
			"count":100,
			"type":"VEC3"
		},
		{
			"bufferView":44,
			"componentType":5126,
			"count":100,
			"type":"VEC3"
		},
		{
			"bufferView":45,
			"componentType":5126,
			"count":100,
			"type":"VEC4"
		},
		{
			"bufferView":46,
			"componentType":5126,
			"count":100,
			"type":"VEC3"
		},
		{
			"bufferView":47,
			"componentType":5126,
			"count":100,
			"type":"VEC3"
		},
		{
			"bufferView":48,
			"componentType":5126,
			"count":100,
			"type":"VEC4"
		},
		{
			"bufferView":49,
			"componentType":5126,
			"count":100,
			"type":"VEC3"
		}
	],
	"bufferViews":[
		{
			"buffer":0,
			"byteLength":3168,
			"byteOffset":0,
			"target":34962
		},
		{
			"buffer":0,
			"byteLength":2112,
			"byteOffset":3168,
			"target":34962
		},
		{
			"buffer":0,
			"byteLength":3168,
			"byteOffset":5280,
			"target":34962
		},
		{
			"buffer":0,
			"byteLength":1056,
			"byteOffset":8448,
			"target":34962
		},
		{
			"buffer":0,
			"byteLength":4224,
			"byteOffset":9504,
			"target":34962
		},
		{
			"buffer":0,
			"byteLength":768,
			"byteOffset":13728,
			"target":34963
		},
		{
			"buffer":0,
			"byteLength":512,
			"byteOffset":14496
		},
		{
			"buffer":0,
			"byteLength":648,
			"byteOffset":15008,
			"target":34962
		},
		{
			"buffer":0,
			"byteLength":432,
			"byteOffset":15656,
			"target":34962
		},
		{
			"buffer":0,
			"byteLength":648,
			"byteOffset":16088,
			"target":34962
		},
		{
			"buffer":0,
			"byteLength":216,
			"byteOffset":16736,
			"target":34962
		},
		{
			"buffer":0,
			"byteLength":864,
			"byteOffset":16952,
			"target":34962
		},
		{
			"buffer":0,
			"byteLength":240,
			"byteOffset":17816,
			"target":34963
		},
		{
			"buffer":0,
			"byteLength":384,
			"byteOffset":18056,
			"target":34962
		},
		{
			"buffer":0,
			"byteLength":256,
			"byteOffset":18440,
			"target":34962
		},
		{
			"buffer":0,
			"byteLength":384,
			"byteOffset":18696,
			"target":34962
		},
		{
			"buffer":0,
			"byteLength":128,
			"byteOffset":19080,
			"target":34962
		},
		{
			"buffer":0,
			"byteLength":512,
			"byteOffset":19208,
			"target":34962
		},
		{
			"buffer":0,
			"byteLength":96,
			"byteOffset":19720,
			"target":34963
		},
		{
			"buffer":0,
			"byteLength":1944,
			"byteOffset":19816,
			"target":34962
		},
		{
			"buffer":0,
			"byteLength":1296,
			"byteOffset":21760,
			"target":34962
		},
		{
			"buffer":0,
			"byteLength":1944,
			"byteOffset":23056,
			"target":34962
		},
		{
			"buffer":0,
			"byteLength":648,
			"byteOffset":25000,
			"target":34962
		},
		{
			"buffer":0,
			"byteLength":2592,
			"byteOffset":25648,
			"target":34962
		},
		{
			"buffer":0,
			"byteLength":576,
			"byteOffset":28240,
			"target":34963
		},
		{
			"buffer":0,
			"byteLength":400,
			"byteOffset":28816
		},
		{
			"buffer":0,
			"byteLength":1200,
			"byteOffset":29216
		},
		{
			"buffer":0,
			"byteLength":1600,
			"byteOffset":30416
		},
		{
			"buffer":0,
			"byteLength":1200,
			"byteOffset":32016
		},
		{
			"buffer":0,
			"byteLength":1200,
			"byteOffset":33216
		},
		{
			"buffer":0,
			"byteLength":1600,
			"byteOffset":34416
		},
		{
			"buffer":0,
			"byteLength":1200,
			"byteOffset":36016
		},
		{
			"buffer":0,
			"byteLength":1200,
			"byteOffset":37216
		},
		{
			"buffer":0,
			"byteLength":1600,
			"byteOffset":38416
		},
		{
			"buffer":0,
			"byteLength":1200,
			"byteOffset":40016
		},
		{
			"buffer":0,
			"byteLength":1200,
			"byteOffset":41216
		},
		{
			"buffer":0,
			"byteLength":1600,
			"byteOffset":42416
		},
		{
			"buffer":0,
			"byteLength":1200,
			"byteOffset":44016
		},
		{
			"buffer":0,
			"byteLength":1200,
			"byteOffset":45216
		},
		{
			"buffer":0,
			"byteLength":1600,
			"byteOffset":46416
		},
		{
			"buffer":0,
			"byteLength":1200,
			"byteOffset":48016
		},
		{
			"buffer":0,
			"byteLength":1200,
			"byteOffset":49216
		},
		{
			"buffer":0,
			"byteLength":1600,
			"byteOffset":50416
		},
		{
			"buffer":0,
			"byteLength":1200,
			"byteOffset":52016
		},
		{
			"buffer":0,
			"byteLength":1200,
			"byteOffset":53216
		},
		{
			"buffer":0,
			"byteLength":1600,
			"byteOffset":54416
		},
		{
			"buffer":0,
			"byteLength":1200,
			"byteOffset":56016
		},
		{
			"buffer":0,
			"byteLength":1200,
			"byteOffset":57216
		},
		{
			"buffer":0,
			"byteLength":1600,
			"byteOffset":58416
		},
		{
			"buffer":0,
			"byteLength":1200,
			"byteOffset":60016
		}
	],
	"buffers":[
		{
			"byteLength":61216,
			"uri":"data:application/octet-stream;base64,"
		}
	]
}
