{
	"asset":{
		"generator":"Khronos glTF Blender I/O v3.5.30",
		"version":"2.0"
	},
	"scene":0,
	"scenes":[
		{
			"name":"Scene",
			"nodes":[
				5
			]
		}
	],
	"nodes":[
		{
			"name":"Center",
			"rotation":[
				1,
				0,
				-4.371138828673793e-08,
				0
			]
		},
		{
			"name":"Right",
			"rotation":[
				-0.2586522400379181,
				0.43789413571357727,
				0.4378941059112549,
				0.7413477897644043
			]
		},
		{
			"name":"Left",
			"rotation":[
				-0.5810326933860779,
				-0.4933900535106659,
				-0.4933900535106659,
				0.41896727681159973
			],
			"scale":[
				1,
				1.0000001192092896,
				1
			],
			"translation":[
				0,
				-0.29268431663513184,
				0
			]
		},
		{
			"children":[
				0,
				1,
				2
			],
			"name":"Top",
			"translation":[
				0,
				1.8237888813018799,
				0
			]
		},
		{
			"mesh":0,
			"name":"Heart_Mesh",
			"skin":0
		},
		{
			"children":[
				4,
				3
			],
			"name":"Heart_Armature"
		}
	],
	"animations":[
		{
			"channels":[
				{
					"sampler":0,
					"target":{
						"node":3,
						"path":"translation"
					}
				},
				{
					"sampler":1,
					"target":{
						"node":3,
						"path":"rotation"
					}
				},
				{
					"sampler":2,
					"target":{
						"node":3,
						"path":"scale"
					}
				},
				{
					"sampler":3,
					"target":{
						"node":0,
						"path":"translation"
					}
				},
				{
					"sampler":4,
					"target":{
						"node":0,
						"path":"rotation"
					}
				},
				{
					"sampler":5,
					"target":{
						"node":0,
						"path":"scale"
					}
				},
				{
					"sampler":6,
					"target":{
						"node":1,
						"path":"translation"
					}
				},
				{
					"sampler":7,
					"target":{
						"node":1,
						"path":"rotation"
					}
				},
				{
					"sampler":8,
					"target":{
						"node":1,
						"path":"scale"
					}
				},
				{
					"sampler":9,
					"target":{
						"node":2,
						"path":"translation"
					}
				},
				{
					"sampler":10,
					"target":{
						"node":2,
						"path":"rotation"
					}
				},
				{
					"sampler":11,
					"target":{
						"node":2,
						"path":"scale"
					}
				}
			],
			"name":"Hearbeat_00",
			"samplers":[
				{
					"input":7,
					"interpolation":"LINEAR",
					"output":8
				},
				{
					"input":7,
					"interpolation":"LINEAR",
					"output":9
				},
				{
					"input":7,
					"interpolation":"LINEAR",
					"output":10
				},
				{
					"input":7,
					"interpolation":"LINEAR",
					"output":11
				},
				{
					"input":7,
					"interpolation":"LINEAR",
					"output":12
				},
				{
					"input":7,
					"interpolation":"LINEAR",
					"output":13
				},
				{
					"input":7,
					"interpolation":"LINEAR",
					"output":14
				},
				{
					"input":7,
					"interpolation":"LINEAR",
					"output":15
				},
				{
					"input":7,
					"interpolation":"LINEAR",
					"output":16
				},
				{
					"input":7,
					"interpolation":"LINEAR",
					"output":17
				},
				{
					"input":7,
					"interpolation":"LINEAR",
					"output":18
				},
				{
					"input":7,
					"interpolation":"LINEAR",
					"output":19
				}
			]
		},
		{
			"channels":[
				{
					"sampler":0,
					"target":{
						"node":3,
						"path":"translation"
					}
				},
				{
					"sampler":1,
					"target":{
						"node":3,
						"path":"rotation"
					}
				},
				{
					"sampler":2,
					"target":{
						"node":3,
						"path":"scale"
					}
				},
				{
					"sampler":3,
					"target":{
						"node":0,
						"path":"translation"
					}
				},
				{
					"sampler":4,
					"target":{
						"node":0,
						"path":"rotation"
					}
				},
				{
					"sampler":5,
					"target":{
						"node":0,
						"path":"scale"
					}
				},
				{
					"sampler":6,
					"target":{
						"node":1,
						"path":"translation"
					}
				},
				{
					"sampler":7,
					"target":{
						"node":1,
						"path":"rotation"
					}
				},
				{
					"sampler":8,
					"target":{
						"node":1,
						"path":"scale"
					}
				},
				{
					"sampler":9,
					"target":{
						"node":2,
						"path":"translation"
					}
				},
				{
					"sampler":10,
					"target":{
						"node":2,
						"path":"rotation"
					}
				},
				{
					"sampler":11,
					"target":{
						"node":2,
						"path":"scale"
					}
				}
			],
			"name":"Heartbeat_Old",
			"samplers":[
				{
					"input":7,
					"interpolation":"LINEAR",
					"output":20
				},
				{
					"input":7,
					"interpolation":"LINEAR",
					"output":21
				},
				{
					"input":7,
					"interpolation":"LINEAR",
					"output":22
				},
				{
					"input":7,
					"interpolation":"LINEAR",
					"output":23
				},
				{
					"input":7,
					"interpolation":"LINEAR",
					"output":24
				},
				{
					"input":7,
					"interpolation":"LINEAR",
					"output":25
				},
				{
					"input":7,
					"interpolation":"LINEAR",
					"output":26
				},
				{
					"input":7,
					"interpolation":"LINEAR",
					"output":27
				},
				{
					"input":7,
					"interpolation":"LINEAR",
					"output":28
				},
				{
					"input":7,
					"interpolation":"LINEAR",
					"output":29
				},
				{
					"input":7,
					"interpolation":"LINEAR",
					"output":30
				},
				{
					"input":7,
					"interpolation":"LINEAR",
					"output":31
				}
			]
		}
	],
	"meshes":[
		{
			"name":"Cube.001",
			"primitives":[
				{
					"attributes":{
						"POSITION":0,
						"TEXCOORD_0":1,
						"NORMAL":2,
						"JOINTS_0":3,
						"WEIGHTS_0":4
					},
					"indices":5
				}
			]
		}
	],
	"skins":[
		{
			"inverseBindMatrices":6,
			"joints":[
				3,
				0,
				1,
				2
			],
			"name":"Heart_Armature"
		}
	],
	"accessors":[
		{
			"bufferView":0,
			"componentType":5126,
			"count":1064,
			"max":[
				1.8315086364746094,
				4.608803749084473,
				1.034173607826233
			],
			"min":[
				-1.2454005479812622,
				-0.23618276417255402,
				-1.5967249870300293
			],
			"type":"VEC3"
		},
		{
			"bufferView":1,
			"componentType":5126,
			"count":1064,
			"type":"VEC2"
		},
		{
			"bufferView":2,
			"componentType":5126,
			"count":1064,
			"type":"VEC3"
		},
		{
			"bufferView":3,
			"componentType":5121,
			"count":1064,
			"type":"VEC4"
		},
		{
			"bufferView":4,
			"componentType":5126,
			"count":1064,
			"type":"VEC4"
		},
		{
			"bufferView":5,
			"componentType":5123,
			"count":1320,
			"type":"SCALAR"
		},
		{
			"bufferView":6,
			"componentType":5126,
			"count":4,
			"type":"MAT4"
		},
		{
			"bufferView":7,
			"componentType":5126,
			"count":25,
			"max":[
				1.0416666666666667
			],
			"min":[
				0.041666666666666664
			],
			"type":"SCALAR"
		},
		{
			"bufferView":8,
			"componentType":5126,
			"count":25,
			"type":"VEC3"
		},
		{
			"bufferView":9,
			"componentType":5126,
			"count":25,
			"type":"VEC4"
		},
		{
			"bufferView":10,
			"componentType":5126,
			"count":25,
			"type":"VEC3"
		},
		{
			"bufferView":11,
			"componentType":5126,
			"count":25,
			"type":"VEC3"
		},
		{
			"bufferView":12,
			"componentType":5126,
			"count":25,
			"type":"VEC4"
		},
		{
			"bufferView":13,
			"componentType":5126,
			"count":25,
			"type":"VEC3"
		},
		{
			"bufferView":14,
			"componentType":5126,
			"count":25,
			"type":"VEC3"
		},
		{
			"bufferView":15,
			"componentType":5126,
			"count":25,
			"type":"VEC4"
		},
		{
			"bufferView":16,
			"componentType":5126,
			"count":25,
			"type":"VEC3"
		},
		{
			"bufferView":17,
			"componentType":5126,
			"count":25,
			"type":"VEC3"
		},
		{
			"bufferView":18,
			"componentType":5126,
			"count":25,
			"type":"VEC4"
		},
		{
			"bufferView":19,
			"componentType":5126,
			"count":25,
			"type":"VEC3"
		},
		{
			"bufferView":20,
			"componentType":5126,
			"count":25,
			"type":"VEC3"
		},
		{
			"bufferView":21,
			"componentType":5126,
			"count":25,
			"type":"VEC4"
		},
		{
			"bufferView":22,
			"componentType":5126,
			"count":25,
			"type":"VEC3"
		},
		{
			"bufferView":23,
			"componentType":5126,
			"count":25,
			"type":"VEC3"
		},
		{
			"bufferView":24,
			"componentType":5126,
			"count":25,
			"type":"VEC4"
		},
		{
			"bufferView":25,
			"componentType":5126,
			"count":25,
			"type":"VEC3"
		},
		{
			"bufferView":26,
			"componentType":5126,
			"count":25,
			"type":"VEC3"
		},
		{
			"bufferView":27,
			"componentType":5126,
			"count":25,
			"type":"VEC4"
		},
		{
			"bufferView":28,
			"componentType":5126,
			"count":25,
			"type":"VEC3"
		},
		{
			"bufferView":29,
			"componentType":5126,
			"count":25,
			"type":"VEC3"
		},
		{
			"bufferView":30,
			"componentType":5126,
			"count":25,
			"type":"VEC4"
		},
		{
			"bufferView":31,
			"componentType":5126,
			"count":25,
			"type":"VEC3"
		}
	],
	"bufferViews":[
		{
			"buffer":0,
			"byteLength":12768,
			"byteOffset":0,
			"target":34962
		},
		{
			"buffer":0,
			"byteLength":8512,
			"byteOffset":12768,
			"target":34962
		},
		{
			"buffer":0,
			"byteLength":12768,
			"byteOffset":21280,
			"target":34962
		},
		{
			"buffer":0,
			"byteLength":4256,
			"byteOffset":34048,
			"target":34962
		},
		{
			"buffer":0,
			"byteLength":17024,
			"byteOffset":38304,
			"target":34962
		},
		{
			"buffer":0,
			"byteLength":2640,
			"byteOffset":55328,
			"target":34963
		},
		{
			"buffer":0,
			"byteLength":256,
			"byteOffset":57968
		},
		{
			"buffer":0,
			"byteLength":100,
			"byteOffset":58224
		},
		{
			"buffer":0,
			"byteLength":300,
			"byteOffset":58324
		},
		{
			"buffer":0,
			"byteLength":400,
			"byteOffset":58624
		},
		{
			"buffer":0,
			"byteLength":300,
			"byteOffset":59024
		},
		{
			"buffer":0,
			"byteLength":300,
			"byteOffset":59324
		},
		{
			"buffer":0,
			"byteLength":400,
			"byteOffset":59624
		},
		{
			"buffer":0,
			"byteLength":300,
			"byteOffset":60024
		},
		{
			"buffer":0,
			"byteLength":300,
			"byteOffset":60324
		},
		{
			"buffer":0,
			"byteLength":400,
			"byteOffset":60624
		},
		{
			"buffer":0,
			"byteLength":300,
			"byteOffset":61024
		},
		{
			"buffer":0,
			"byteLength":300,
			"byteOffset":61324
		},
		{
			"buffer":0,
			"byteLength":400,
			"byteOffset":61624
		},
		{
			"buffer":0,
			"byteLength":300,
			"byteOffset":62024
		},
		{
			"buffer":0,
			"byteLength":300,
			"byteOffset":62324
		},
		{
			"buffer":0,
			"byteLength":400,
			"byteOffset":62624
		},
		{
			"buffer":0,
			"byteLength":300,
			"byteOffset":63024
		},
		{
			"buffer":0,
			"byteLength":300,
			"byteOffset":63324
		},
		{
			"buffer":0,
			"byteLength":400,
			"byteOffset":63624
		},
		{
			"buffer":0,
			"byteLength":300,
			"byteOffset":64024
		},
		{
			"buffer":0,
			"byteLength":300,
			"byteOffset":64324
		},
		{
			"buffer":0,
			"byteLength":400,
			"byteOffset":64624
		},
		{
			"buffer":0,
			"byteLength":300,
			"byteOffset":65024
		},
		{
			"buffer":0,
			"byteLength":300,
			"byteOffset":65324
		},
		{
			"buffer":0,
			"byteLength":400,
			"byteOffset":65624
		},
		{
			"buffer":0,
			"byteLength":300,
			"byteOffset":66024
		}
	],
	"buffers":[
		{
			"byteLength":66324,
			"uri":"data:application/octet-stream;base64,"
		}
	]
}
